<?xml version="1.0" encoding="UTF-8"?>
<svg id="Layer_1" data-name="Layer 1" xmlns="http://www.w3.org/2000/svg" viewBox="0 0 1000 500">
  <defs>
    <style>
      .cls-1 {
        fill: #939799;
      }

      .cls-2 {
        fill: #54585d;
      }
    </style>
  </defs>
  <path d="M756.94,196.36l37.83,99.07h.39l19.89-99.07h28.08l-29.45,139.24h-30.62l-38.22-97.7h-.39l-19.89,97.7h-28.47l29.25-139.24h31.59Z"/>
  <path d="M253.21,198.08l33.77,139.24h-30.42l-6.84-31.01h-52.07l-15.2,31.01h-32.18l71.54-139.24h31.4Zm-7.95,85.41l-11.03-55.38h-.39l-25.83,55.38h37.25Z"/>
  <path d="M925.31,196.36l33.77,139.24h-30.42l-6.84-31.01h-52.07l-15.2,31.01h-32.18l71.54-139.24h31.4Zm-7.95,85.41l-11.03-55.38h-.39l-25.83,55.38h37.25Z"/>
  <g>
    <path d="M44.44,361.42l-1.91,5.38h-2.76l6.62-18.75h3.45l6.9,18.75h-2.95l-1.98-5.38h-7.36Zm6.68-2.36c-1.7-4.74-2.66-7.35-3.07-8.82h-.03c-.46,1.64-1.53,4.77-2.9,8.82h6Z"/>
    <path d="M73.53,365.48c0,4.41-1.78,6.97-6.41,6.97-4.33,0-5.56-2.42-5.78-4.23h2.7c.38,1.4,1.49,2.17,3.2,2.17,2.99,0,3.71-1.89,3.71-4.96v-1.02c-.73,1.47-1.97,2.32-4.21,2.32-3.43,0-5.69-2.8-5.69-6.76,0-4.45,2.6-7.22,5.95-7.22,2.57,0,3.66,1.21,3.95,2.07,.03-.57,.09-1.47,.12-1.74h2.51c-.01,.88-.04,2.64-.04,3.96v8.46Zm-9.74-5.64c0,2.8,1.44,4.65,3.58,4.65,2.83,0,3.65-1.91,3.65-4.82s-.74-4.73-3.57-4.73c-2.37,0-3.66,1.96-3.66,4.89Z"/>
    <path d="M81.86,360.44c.01,2.59,1.32,4.51,3.56,4.51,2.06,0,2.71-1.03,3.14-2h2.67c-.53,1.75-2.01,4.18-5.88,4.18-4.36,0-6.16-3.49-6.16-7.04,0-4.13,2.09-7.35,6.31-7.35,4.49,0,5.97,3.53,5.97,6.56,0,.43,0,.77-.04,1.14h-9.57Zm6.93-1.8c-.03-2.13-1.07-3.86-3.32-3.86s-3.3,1.6-3.52,3.86h6.85Z"/>
    <path d="M97.07,356.52c0-1.19,0-2.41-.03-3.46h2.57c.07,.39,.11,1.74,.1,2.16,.53-1.12,1.65-2.48,4.26-2.48s4.59,1.63,4.59,5.25v8.82h-2.65v-8.5c0-1.97-.75-3.32-2.77-3.32-2.4,0-3.42,1.76-3.42,4.46v7.35h-2.65v-10.28Z"/>
    <path d="M116.41,362.83c.37,1.42,1.44,2.26,3.22,2.26,1.9,0,2.64-.8,2.64-1.97s-.62-1.75-3.12-2.36c-4.03-.98-4.84-2.22-4.84-4.1s1.43-3.92,5.08-3.92,5.11,2.1,5.28,4h-2.55c-.18-.82-.79-2-2.84-2-1.8,0-2.34,.86-2.34,1.7,0,.96,.54,1.43,3,2.02,4.25,1,5.05,2.43,5.05,4.47,0,2.38-1.88,4.2-5.45,4.2s-5.42-1.84-5.76-4.29h2.63Z"/>
    <path d="M130.54,347h2.65v3.05h-2.65v-3.05Zm0,6.06h2.65v13.74h-2.65v-13.74Z"/>
    <path d="M149.6,348.05h7.24c3.71,0,6.25,2.08,6.25,5.52,0,3.73-2.72,5.66-6.39,5.66h-4.3v7.57h-2.8v-18.75Zm2.8,8.87h4.11c2.44,0,3.73-1.15,3.73-3.28s-1.53-3.28-3.63-3.28h-4.2v6.57Z"/>
    <path d="M169.89,360.44c.01,2.59,1.32,4.51,3.56,4.51,2.06,0,2.71-1.03,3.14-2h2.67c-.53,1.75-2.01,4.18-5.88,4.18-4.36,0-6.16-3.49-6.16-7.04,0-4.13,2.09-7.35,6.31-7.35,4.49,0,5.97,3.53,5.97,6.56,0,.43,0,.77-.04,1.14h-9.57Zm6.93-1.8c-.03-2.13-1.07-3.86-3.32-3.86s-3.3,1.6-3.52,3.86h6.85Z"/>
    <path d="M185.12,366.8v-19.8h2.65v19.8h-2.65Z"/>
    <path d="M204.63,363.7c0,1.26,.11,2.72,.19,3.1h-2.53c-.11-.3-.19-.97-.22-1.71-.48,.89-1.55,2.03-4.17,2.03-3.25,0-4.64-2.12-4.64-4.22,0-3.08,2.43-4.49,6.5-4.49h2.27v-1.11c0-1.17-.38-2.55-2.8-2.55-2.16,0-2.54,1.05-2.78,2.11h-2.55c.19-2,1.42-4.15,5.42-4.14,3.42,.01,5.31,1.39,5.31,4.55v6.42Zm-2.59-3.51h-2.09c-2.65,0-4,.75-4,2.57,0,1.34,.91,2.35,2.54,2.35,3.14,0,3.55-2.12,3.55-4.49v-.43Z"/>
    <path d="M213.85,359.47c1.13-1.36,3.92-4.33,5.79-6.41h3.13l-5.1,5.32,5.66,8.42h-3.07l-4.4-6.72-2.01,1.94v4.78h-2.65v-19.8h2.65v12.47Z"/>
    <path d="M229.47,362.83c.37,1.42,1.44,2.26,3.22,2.26,1.9,0,2.64-.8,2.64-1.97s-.62-1.75-3.12-2.36c-4.03-.98-4.84-2.22-4.84-4.1s1.43-3.92,5.08-3.92,5.11,2.1,5.28,4h-2.55c-.18-.82-.79-2-2.84-2-1.8,0-2.34,.86-2.34,1.7,0,.96,.54,1.43,3,2.02,4.25,1,5.05,2.43,5.05,4.47,0,2.38-1.87,4.2-5.45,4.2s-5.42-1.84-5.76-4.29h2.63Z"/>
    <path d="M254.18,363.7c0,1.26,.11,2.72,.19,3.1h-2.53c-.11-.3-.19-.97-.22-1.71-.48,.89-1.55,2.03-4.17,2.03-3.25,0-4.64-2.12-4.64-4.22,0-3.08,2.43-4.49,6.5-4.49h2.27v-1.11c0-1.17-.38-2.55-2.8-2.55-2.16,0-2.54,1.05-2.78,2.11h-2.55c.19-2,1.42-4.15,5.42-4.14,3.42,.01,5.31,1.39,5.31,4.55v6.42Zm-2.59-3.51h-2.09c-2.65,0-4,.75-4,2.57,0,1.34,.91,2.35,2.54,2.35,3.14,0,3.55-2.12,3.55-4.49v-.43Z"/>
    <path d="M260.77,356.52c0-1.19,0-2.41-.03-3.46h2.57c.07,.39,.11,1.74,.1,2.16,.53-1.12,1.65-2.48,4.26-2.48s4.59,1.63,4.59,5.25v8.82h-2.65v-8.5c0-1.97-.75-3.32-2.77-3.32-2.4,0-3.42,1.76-3.42,4.46v7.35h-2.65v-10.28Z"/>
    <path d="M289.09,363.7c0,1.26,.11,2.72,.19,3.1h-2.53c-.11-.3-.19-.97-.22-1.71-.48,.89-1.55,2.03-4.17,2.03-3.25,0-4.64-2.12-4.64-4.22,0-3.08,2.43-4.49,6.5-4.49h2.27v-1.11c0-1.17-.38-2.55-2.8-2.55-2.16,0-2.54,1.05-2.78,2.11h-2.55c.19-2,1.42-4.15,5.42-4.14,3.42,.01,5.31,1.39,5.31,4.55v6.42Zm-2.59-3.51h-2.09c-2.65,0-4,.75-4,2.57,0,1.34,.91,2.35,2.54,2.35,3.14,0,3.55-2.12,3.55-4.49v-.43Z"/>
    <path d="M305.94,363.7c0,1.26,.11,2.72,.19,3.1h-2.53c-.11-.3-.19-.97-.22-1.71-.48,.89-1.55,2.03-4.17,2.03-3.25,0-4.64-2.12-4.64-4.22,0-3.08,2.43-4.49,6.5-4.49h2.27v-1.11c0-1.17-.38-2.55-2.8-2.55-2.16,0-2.54,1.05-2.78,2.11h-2.55c.19-2,1.42-4.15,5.42-4.14,3.42,.01,5.31,1.39,5.31,4.55v6.42Zm-2.59-3.51h-2.09c-2.65,0-4,.75-4,2.57,0,1.34,.91,2.35,2.54,2.35,3.14,0,3.55-2.12,3.55-4.49v-.43Z"/>
    <path d="M312.53,356.52c0-1.19,0-2.41-.03-3.46h2.57c.07,.39,.11,1.74,.1,2.16,.53-1.12,1.65-2.48,4.26-2.48s4.59,1.63,4.59,5.25v8.82h-2.65v-8.5c0-1.97-.75-3.32-2.77-3.32-2.4,0-3.42,1.76-3.42,4.46v7.35h-2.65v-10.28Z"/>
    <path d="M352.39,358.17h-9.26v6.28h10.18l-.35,2.36h-12.55v-18.75h12.42v2.36h-9.7v5.4h9.26v2.36Z"/>
    <path d="M361.21,359.47c1.13-1.36,3.92-4.33,5.79-6.41h3.13l-5.1,5.32,5.66,8.42h-3.07l-4.4-6.72-2.01,1.94v4.78h-2.65v-19.8h2.65v12.47Z"/>
    <path d="M386.79,359.91c0,4-2.31,7.22-6.54,7.22-4,0-6.4-3.05-6.4-7.17s2.38-7.22,6.56-7.22c3.86,0,6.38,2.86,6.38,7.17Zm-10.23,.03c0,2.94,1.43,5.02,3.78,5.02s3.73-1.99,3.73-5.01-1.34-5.03-3.78-5.03-3.73,1.93-3.73,5.02Z"/>
    <path d="M392.41,356.52c0-1.19,0-2.41-.03-3.46h2.57c.07,.39,.11,1.74,.1,2.16,.53-1.12,1.65-2.48,4.26-2.48s4.59,1.63,4.59,5.25v8.82h-2.65v-8.5c0-1.97-.75-3.32-2.77-3.32-2.4,0-3.42,1.76-3.42,4.46v7.35h-2.65v-10.28Z"/>
    <path d="M422.44,359.91c0,4-2.31,7.22-6.54,7.22-4,0-6.4-3.05-6.4-7.17s2.38-7.22,6.56-7.22c3.86,0,6.38,2.86,6.38,7.17Zm-10.23,.03c0,2.94,1.43,5.02,3.78,5.02s3.73-1.99,3.73-5.01-1.34-5.03-3.78-5.03-3.73,1.93-3.73,5.02Z"/>
    <path d="M428.04,356.6c0-1.19,0-2.42-.03-3.54h2.55c.04,.4,.11,1.36,.1,2.02,.64-1.19,1.82-2.35,3.96-2.35,1.95,0,3.24,.99,3.76,2.39,.75-1.27,2.02-2.39,4.35-2.39s4.34,1.35,4.34,5.04v9.03h-2.6v-8.71c0-1.53-.55-3.12-2.58-3.12s-3.02,1.57-3.02,3.94v7.89h-2.6v-8.62c0-1.7-.47-3.19-2.53-3.19s-3.08,1.62-3.08,4.19v7.62h-2.63v-10.2Z"/>
    <path d="M453.64,347h2.65v3.05h-2.65v-3.05Zm0,6.06h2.65v13.74h-2.65v-13.74Z"/>
    <path d="M483.91,347v15.94c0,1.28,0,2.55,.03,3.86h-2.55c-.07-.37-.12-1.36-.13-1.85-.67,1.36-2.03,2.18-4.24,2.18-3.52,0-5.7-2.85-5.7-7.06s2.34-7.33,6.16-7.33c2.34,0,3.42,.93,3.78,1.67v-7.4h2.65Zm-9.85,12.99c0,3.2,1.47,4.92,3.58,4.92,3.1,0,3.73-2.33,3.73-5.15s-.58-4.82-3.56-4.82c-2.34,0-3.74,1.85-3.74,5.04Z"/>
    <path d="M500.75,363.7c0,1.26,.11,2.72,.19,3.1h-2.53c-.11-.3-.19-.97-.22-1.71-.48,.89-1.55,2.03-4.17,2.03-3.26,0-4.64-2.12-4.64-4.22,0-3.08,2.43-4.49,6.5-4.49h2.27v-1.11c0-1.17-.38-2.55-2.8-2.55-2.16,0-2.54,1.05-2.78,2.11h-2.55c.19-2,1.42-4.15,5.42-4.14,3.42,.01,5.31,1.39,5.31,4.55v6.42Zm-2.59-3.51h-2.09c-2.65,0-4,.75-4,2.57,0,1.34,.91,2.35,2.54,2.35,3.14,0,3.55-2.12,3.55-4.49v-.43Z"/>
    <path d="M507.34,356.52c0-1.19,0-2.41-.03-3.46h2.57c.07,.39,.11,1.74,.1,2.16,.53-1.12,1.65-2.48,4.26-2.48s4.58,1.63,4.58,5.25v8.82h-2.65v-8.5c0-1.97-.75-3.32-2.77-3.32-2.4,0-3.42,1.76-3.42,4.46v7.35h-2.65v-10.28Z"/>
    <path d="M535.22,348.05h2.76v9.04c1.36-1.45,5.95-6.07,8.8-9.04h3.43l-7.96,7.89,8.34,10.87h-3.37l-6.92-9.06-2.32,2.12v6.94h-2.76v-18.75Z"/>
    <path d="M566.91,359.91c0,4-2.31,7.22-6.54,7.22-4,0-6.4-3.05-6.4-7.17s2.38-7.22,6.56-7.22c3.86,0,6.38,2.86,6.38,7.17Zm-10.23,.03c0,2.94,1.43,5.02,3.78,5.02s3.73-1.99,3.73-5.01-1.34-5.03-3.78-5.03-3.73,1.93-3.73,5.02Z"/>
    <path d="M584.68,359.91c0,4-2.31,7.22-6.54,7.22-4,0-6.4-3.05-6.4-7.17s2.38-7.22,6.56-7.22c3.86,0,6.38,2.86,6.38,7.17Zm-10.23,.03c0,2.94,1.43,5.02,3.78,5.02s3.73-1.99,3.73-5.01-1.34-5.03-3.78-5.03-3.73,1.93-3.73,5.02Z"/>
    <path d="M590.28,356.79c0-1.81-.02-2.92-.03-3.73h2.6c.04,.37,.08,1.5,.08,2.73,.7-1.8,2.3-3,4.59-3.05v2.61c-2.81,.05-4.59,1.39-4.59,4.92v6.54h-2.65v-10.01Z"/>
    <path d="M614.07,347v15.94c0,1.28,0,2.55,.03,3.86h-2.55c-.07-.37-.12-1.36-.13-1.85-.68,1.36-2.03,2.18-4.24,2.18-3.52,0-5.7-2.85-5.7-7.06s2.34-7.33,6.16-7.33c2.34,0,3.42,.93,3.78,1.67v-7.4h2.65Zm-9.85,12.99c0,3.2,1.48,4.92,3.58,4.92,3.1,0,3.73-2.33,3.73-5.15s-.58-4.82-3.56-4.82c-2.34,0-3.75,1.85-3.75,5.04Z"/>
    <path d="M620.61,347h2.65v3.05h-2.65v-3.05Zm0,6.06h2.65v13.74h-2.65v-13.74Z"/>
    <path d="M629.83,356.52c0-1.19,0-2.41-.03-3.46h2.57c.07,.39,.11,1.74,.1,2.16,.53-1.12,1.65-2.48,4.26-2.48s4.59,1.63,4.59,5.25v8.82h-2.65v-8.5c0-1.97-.75-3.32-2.77-3.32-2.4,0-3.42,1.76-3.42,4.46v7.35h-2.65v-10.28Z"/>
    <path d="M658.16,363.7c0,1.26,.11,2.72,.19,3.1h-2.53c-.11-.3-.19-.97-.22-1.71-.48,.89-1.55,2.03-4.17,2.03-3.26,0-4.64-2.12-4.64-4.22,0-3.08,2.43-4.49,6.5-4.49h2.27v-1.11c0-1.17-.38-2.55-2.8-2.55-2.16,0-2.54,1.05-2.78,2.11h-2.55c.19-2,1.42-4.15,5.42-4.14,3.42,.01,5.31,1.39,5.31,4.55v6.42Zm-2.59-3.51h-2.09c-2.65,0-4,.75-4,2.57,0,1.34,.91,2.35,2.54,2.35,3.14,0,3.55-2.12,3.55-4.49v-.43Z"/>
    <path d="M666.02,362.83c.37,1.42,1.44,2.26,3.22,2.26,1.9,0,2.64-.8,2.64-1.97s-.62-1.75-3.12-2.36c-4.03-.98-4.84-2.22-4.84-4.1s1.43-3.92,5.08-3.92,5.11,2.1,5.28,4h-2.55c-.18-.82-.79-2-2.84-2-1.8,0-2.34,.86-2.34,1.7,0,.96,.54,1.43,3,2.02,4.25,1,5.05,2.43,5.05,4.47,0,2.38-1.87,4.2-5.45,4.2s-5.42-1.84-5.76-4.29h2.63Z"/>
    <path d="M680.15,347h2.65v3.05h-2.65v-3.05Zm0,6.06h2.65v13.74h-2.65v-13.74Z"/>
    <path d="M700.69,361.53c.49,2.18,2,3.32,4.61,3.32,2.78,0,3.9-1.27,3.9-2.97,0-1.81-.92-2.79-4.57-3.67-4.55-1.1-6.03-2.67-6.03-5.29,0-2.88,2.13-5.14,6.36-5.14,4.56,0,6.43,2.6,6.68,5.11h-2.83c-.31-1.57-1.28-2.92-3.95-2.92-2.16,0-3.39,.96-3.39,2.66s1.01,2.34,4.25,3.12c5.37,1.3,6.36,3.37,6.36,5.82,0,3.1-2.31,5.47-6.96,5.47s-6.85-2.53-7.25-5.51h2.82Z"/>
    <path d="M716.09,353.06h2.33v-3.99h2.65v3.99h2.97v2.11h-2.97v7.81c0,1.28,.32,1.91,1.55,1.91,.31,0,.78-.01,1.13-.1v1.95c-.62,.23-1.48,.26-2.15,.26-2.24,0-3.18-1.17-3.18-3.48v-8.34h-2.33v-2.11Z"/>
    <path d="M729.03,356.79c0-1.81-.01-2.92-.03-3.73h2.6c.04,.37,.08,1.5,.08,2.73,.7-1.8,2.3-3,4.59-3.05v2.61c-2.81,.05-4.59,1.39-4.59,4.92v6.54h-2.65v-10.01Z"/>
    <path d="M751.37,363.7c0,1.26,.11,2.72,.19,3.1h-2.53c-.11-.3-.19-.97-.22-1.71-.48,.89-1.55,2.03-4.17,2.03-3.25,0-4.64-2.12-4.64-4.22,0-3.08,2.43-4.49,6.5-4.49h2.27v-1.11c0-1.17-.38-2.55-2.8-2.55-2.16,0-2.54,1.05-2.78,2.11h-2.55c.19-2,1.42-4.15,5.42-4.14,3.42,.01,5.31,1.39,5.31,4.55v6.42Zm-2.59-3.51h-2.09c-2.65,0-4,.75-4,2.57,0,1.34,.91,2.35,2.54,2.35,3.14,0,3.55-2.12,3.55-4.49v-.43Z"/>
    <path d="M756.05,353.06h2.33v-3.99h2.65v3.99h2.97v2.11h-2.97v7.81c0,1.28,.32,1.91,1.55,1.91,.31,0,.78-.01,1.13-.1v1.95c-.62,.23-1.48,.26-2.15,.26-2.24,0-3.18-1.17-3.18-3.48v-8.34h-2.33v-2.11Z"/>
    <path d="M770.7,360.44c.01,2.59,1.31,4.51,3.56,4.51,2.06,0,2.71-1.03,3.14-2h2.66c-.53,1.75-2.01,4.18-5.88,4.18-4.36,0-6.16-3.49-6.16-7.04,0-4.13,2.09-7.35,6.31-7.35,4.49,0,5.97,3.53,5.97,6.56,0,.43,0,.77-.04,1.14h-9.57Zm6.93-1.8c-.03-2.13-1.07-3.86-3.32-3.86s-3.3,1.6-3.52,3.86h6.85Z"/>
    <path d="M797.69,365.48c0,4.41-1.78,6.97-6.41,6.97-4.33,0-5.56-2.42-5.78-4.23h2.7c.38,1.4,1.48,2.17,3.2,2.17,2.99,0,3.71-1.89,3.71-4.96v-1.02c-.73,1.47-1.97,2.32-4.21,2.32-3.43,0-5.69-2.8-5.69-6.76,0-4.45,2.6-7.22,5.95-7.22,2.57,0,3.66,1.21,3.95,2.07,.03-.57,.09-1.47,.12-1.74h2.51c-.01,.88-.04,2.64-.04,3.96v8.46Zm-9.74-5.64c0,2.8,1.44,4.65,3.58,4.65,2.84,0,3.65-1.91,3.65-4.82s-.74-4.73-3.57-4.73c-2.37,0-3.66,1.96-3.66,4.89Z"/>
    <path d="M804.23,347h2.65v3.05h-2.65v-3.05Zm0,6.06h2.65v13.74h-2.65v-13.74Z"/>
    <path d="M816.09,359.47c1.13-1.36,3.92-4.33,5.79-6.41h3.13l-5.1,5.32,5.66,8.42h-3.07l-4.4-6.72-2.01,1.94v4.78h-2.65v-19.8h2.65v12.47Z"/>
    <path d="M839.79,366.8v-18.75h3.62c2.62,4.35,8.19,13.35,9.2,15.39h.04c-.19-2.32-.17-5.34-.17-8.4v-6.99h2.6v18.75h-3.41c-2.39-3.99-8.25-13.78-9.37-15.9h-.04c.13,2.04,.14,5.35,.14,8.73v7.17h-2.61Z"/>
    <path d="M872.16,363.7c0,1.26,.11,2.72,.19,3.1h-2.54c-.11-.3-.19-.97-.22-1.71-.48,.89-1.55,2.03-4.17,2.03-3.25,0-4.64-2.12-4.64-4.22,0-3.08,2.43-4.49,6.5-4.49h2.27v-1.11c0-1.17-.38-2.55-2.8-2.55-2.16,0-2.54,1.05-2.78,2.11h-2.55c.19-2,1.42-4.15,5.42-4.14,3.42,.01,5.31,1.39,5.31,4.55v6.42Zm-2.59-3.51h-2.09c-2.65,0-4,.75-4,2.57,0,1.34,.91,2.35,2.54,2.35,3.14,0,3.55-2.12,3.55-4.49v-.43Z"/>
    <path d="M880.02,362.83c.37,1.42,1.44,2.26,3.22,2.26,1.9,0,2.64-.8,2.64-1.97s-.62-1.75-3.12-2.36c-4.03-.98-4.84-2.22-4.84-4.1s1.43-3.92,5.08-3.92,5.11,2.1,5.28,4h-2.55c-.18-.82-.79-2-2.84-2-1.8,0-2.34,.86-2.34,1.7,0,.96,.54,1.43,3,2.02,4.25,1,5.05,2.43,5.05,4.47,0,2.38-1.87,4.2-5.45,4.2s-5.42-1.84-5.76-4.29h2.63Z"/>
    <path d="M894.16,347h2.65v3.05h-2.65v-3.05Zm0,6.06h2.65v13.74h-2.65v-13.74Z"/>
    <path d="M915.37,359.91c0,4-2.31,7.22-6.54,7.22-4,0-6.4-3.05-6.4-7.17s2.38-7.22,6.56-7.22c3.86,0,6.38,2.86,6.38,7.17Zm-10.23,.03c0,2.94,1.43,5.02,3.78,5.02s3.73-1.99,3.73-5.01-1.34-5.03-3.78-5.03-3.73,1.93-3.73,5.02Z"/>
    <path d="M920.98,356.52c0-1.19,0-2.41-.03-3.46h2.57c.07,.39,.11,1.74,.1,2.16,.53-1.12,1.65-2.48,4.26-2.48s4.58,1.63,4.58,5.25v8.82h-2.65v-8.5c0-1.97-.75-3.32-2.77-3.32-2.4,0-3.42,1.76-3.42,4.46v7.35h-2.65v-10.28Z"/>
    <path d="M949.31,363.7c0,1.26,.11,2.72,.19,3.1h-2.54c-.11-.3-.19-.97-.22-1.71-.48,.89-1.55,2.03-4.17,2.03-3.25,0-4.64-2.12-4.64-4.22,0-3.08,2.43-4.49,6.5-4.49h2.27v-1.11c0-1.17-.38-2.55-2.8-2.55-2.16,0-2.54,1.05-2.78,2.11h-2.55c.19-2,1.42-4.15,5.42-4.14,3.42,.01,5.31,1.39,5.31,4.55v6.42Zm-2.59-3.51h-2.09c-2.65,0-4,.75-4,2.57,0,1.34,.91,2.35,2.54,2.35,3.14,0,3.55-2.12,3.55-4.49v-.43Z"/>
    <path d="M955.89,366.8v-19.8h2.65v19.8h-2.65Z"/>
  </g>
  <path class="cls-1" d="M650.3,198.5l-30.66-55.28-127.11,191.13,233.53-173.53-75.77,37.67Zm-56.22,27.95l20.59-31.61,7.33,17.73-27.92,13.88Z"/>
  <path d="M104.12,198.08l-23.79,113.5h67.28l-5.46,25.74H44.25l29.06-139.24h30.81Z"/>
  <path d="M355.67,198.08l-12.09,58.31h.39l63.18-58.31h40.56l-66.89,57.33,42.71,81.9h-34.52l-31.79-62.6-21.26,18.53-9.17,44.07h-30.62l28.86-139.24h30.62Z"/>
  <polygon class="cls-2" points="724.14 335.12 701.05 292.85 671.74 239.21 665.59 227.67 726.27 167.29 503.62 334.36 519.45 334.36 558.36 334.36 639.74 253.39 645.64 267.65 673.13 335.12 673.14 335.12 673.34 335.6 724.39 335.6 724.13 335.12 724.14 335.12"/>
  <path d="M454.85,300.37c1.43,3.31,3.51,5.95,6.24,7.9,2.73,1.95,5.98,3.35,9.75,4.19,3.77,.85,7.86,1.27,12.29,1.27,3.12,0,6.24-.39,9.36-1.17,3.12-.78,5.95-1.95,8.48-3.51,2.54-1.56,4.61-3.57,6.24-6.04,1.62-2.47,2.44-5.46,2.44-8.97s-1.04-6.14-3.12-8.29c-2.08-2.14-4.78-4-8.09-5.56-3.31-1.56-7.09-2.93-11.31-4.1-4.23-1.17-8.48-2.4-12.77-3.7-4.42-1.3-8.71-2.86-12.87-4.68-4.16-1.82-7.9-4.16-11.21-7.02-3.32-2.86-5.98-6.37-8-10.53-2.02-4.16-3.02-9.23-3.02-15.21,0-7.8,1.62-14.43,4.87-19.89,3.25-5.46,7.47-9.91,12.68-13.36,5.2-3.44,11.08-5.98,17.65-7.61,6.56-1.62,13.23-2.44,19.99-2.44,7.15,0,13.88,.81,20.18,2.44,6.3,1.63,11.83,4.26,16.58,7.9,4.74,3.64,8.51,8.29,11.31,13.94,2.8,5.66,4.19,12.51,4.19,20.57h-29.05c.13-3.9-.42-7.18-1.66-9.85-1.24-2.66-2.99-4.84-5.26-6.53-2.28-1.69-4.97-2.89-8.09-3.61-3.12-.71-6.44-1.07-9.95-1.07-2.86,0-5.75,.29-8.68,.88-2.93,.59-5.56,1.56-7.9,2.93-2.34,1.37-4.23,3.15-5.66,5.36-1.43,2.21-2.15,4.94-2.15,8.19s1.27,6.21,3.8,8.48c2.54,2.28,5.59,4.16,9.17,5.66,3.57,1.5,7.25,2.67,11.02,3.51,3.77,.85,6.83,1.53,9.17,2.05,5.46,1.43,10.46,3.09,15.02,4.97,4.55,1.89,8.48,4.32,11.8,7.31,3.31,2.99,5.88,6.63,7.7,10.92,1.82,4.29,2.73,9.56,2.73,15.8,0,8.32-1.73,15.41-5.17,21.26-3.45,5.85-7.87,10.6-13.26,14.24-5.4,3.64-11.48,6.27-18.23,7.9-6.76,1.62-13.46,2.44-20.09,2.44-19.5,0-34.03-3.96-43.58-11.9-9.56-7.93-14.33-20.41-14.33-37.44h29.06c-.26,4.94,.32,9.07,1.76,12.38Z"/>
</svg>